<svg width="50" height="54" viewBox="0 0 50 54" fill="none" xmlns="http://www.w3.org/2000/svg">
<path d="M32.0398 16.6039C34.3925 18.6307 38.1336 12.7402 40.9038 14.1434C43.2733 15.3437 41.0464 19.5928 42.4239 21.8638C44.1967 24.7866 48.9066 25.505 49.797 28.8054C50.615 31.8376 48.8388 35.3029 46.6593 37.5642C44.505 39.7994 41.2027 41.124 38.1039 40.9374C35.0511 40.7536 32.6535 34.7926 30.1654 36.571C24.86 40.3633 27.1167 52.3951 20.6727 53.3969C15.6133 54.1835 20.2069 43.1848 18.3728 38.4044C17.4846 36.0896 15.0042 34.8558 12.9993 33.3971C8.7879 30.333 0.578394 30.2313 0.0218765 25.053C-0.474404 20.4352 7.60096 19.9744 11.2477 17.0983C13.6 15.243 15.8926 13.4106 17.7571 11.0656C20.4688 7.65502 20.6348 -1.39282 24.6972 0.182464C30.3587 2.3778 27.4392 12.6408 32.0398 16.6039Z" fill="#DB2D43"/>
</svg>
