<svg width="252" height="187" viewBox="0 0 252 187" fill="none" xmlns="http://www.w3.org/2000/svg">
<g filter="url(#filter0_f_14_4224)">
<path d="M65.3074 121.474C93.4216 121.474 116.213 98.567 116.213 70.3101C116.213 42.0531 93.4216 19.1464 65.3074 19.1464C37.1932 19.1464 14.4021 42.0531 14.4021 70.3101C14.4021 98.567 37.1932 121.474 65.3074 121.474Z" fill="#FA9E42"/>
<g filter="url(#filter1_f_14_4224)">
<path d="M61.629 63.0341C78.5474 54.0479 88.0103 38.7574 82.7648 28.8816C77.5194 19.0059 59.552 18.2847 42.6335 27.2708C25.7151 36.2569 16.2523 51.5475 21.4977 61.4232C26.7432 71.299 44.7105 72.0202 61.629 63.0341Z" fill="#F8E36F"/>
</g>
<g filter="url(#filter2_d_14_4224)">
<path d="M165.487 154.549H66.5544C56.9571 154.542 47.7347 150.822 40.8179 144.169C33.901 137.516 29.826 128.445 29.4459 118.855C29.0658 109.265 32.41 99.9004 38.7786 92.7207C45.1471 85.5409 54.0462 81.103 63.6128 80.3361C64.977 70.7028 69.3271 61.7397 76.0511 54.7077C82.775 47.6757 91.5344 42.9287 101.097 41.1346C110.659 39.3404 120.544 40.5894 129.359 44.7059C138.175 48.8223 145.478 55.599 150.242 64.0825C158.978 61.0582 168.418 60.7049 177.356 63.0675C186.294 65.4302 194.326 70.4018 200.428 77.3482C206.529 84.2946 210.422 92.9009 211.612 102.069C212.801 111.238 211.233 120.553 207.107 128.826C204.685 136.301 199.958 142.817 193.603 147.438C187.249 152.059 179.594 154.549 171.737 154.549H165.487Z" fill="url(#paint0_linear_14_4224)"/>
<path d="M171.737 154.032C175.726 154.032 179.648 153.395 183.395 152.139C187.018 150.924 190.419 149.151 193.505 146.869C196.554 144.614 199.228 141.912 201.45 138.84C203.701 135.728 205.439 132.306 206.615 128.667L206.627 128.63L206.644 128.595C208.209 125.469 209.414 122.163 210.225 118.767C211.06 115.273 211.483 111.663 211.483 108.037C211.483 104.915 211.169 101.797 210.549 98.7663C209.944 95.8134 209.043 92.9088 207.869 90.1332C206.716 87.4079 205.289 84.7793 203.628 82.3204C201.983 79.8847 200.093 77.5943 198.011 75.5128C195.93 73.4312 193.639 71.5415 191.204 69.896C188.745 68.2348 186.116 66.808 183.391 65.6553C180.615 64.4813 177.711 63.5796 174.758 62.9754C171.728 62.3553 168.609 62.0409 165.488 62.0409C160.32 62.0409 155.247 62.8914 150.411 64.5687L150.003 64.7102L149.791 64.3337C145.855 57.3352 140.13 51.4578 133.235 47.3369C129.747 45.2529 126.001 43.6424 122.099 42.5502C118.074 41.4235 113.893 40.8522 109.673 40.8522C103.996 40.8522 98.4541 41.8739 93.2018 43.8889C88.1278 45.8355 83.4731 48.6475 79.3672 52.2467C75.2848 55.8251 71.897 60.0474 69.2978 64.7961C66.6348 69.6615 64.8942 74.9133 64.1246 80.4058L64.067 80.8169L63.6531 80.8493C59.0234 81.2116 54.5692 82.4306 50.414 84.4721C46.3765 86.4559 42.7712 89.139 39.6982 92.447C33.3838 99.2443 29.9063 108.1 29.9063 117.384C29.9063 122.332 30.8752 127.131 32.786 131.649C33.7045 133.82 34.8413 135.915 36.1649 137.874C37.476 139.815 38.9817 141.64 40.6403 143.298C42.2988 144.957 44.1238 146.462 46.0644 147.774C48.0236 149.097 50.118 150.234 52.2894 151.152C56.8072 153.063 61.6066 154.032 66.5543 154.032H165.488H171.737ZM171.737 154.549H165.488H66.5543C46.0288 154.549 29.3895 137.91 29.3895 117.384C29.3895 97.8483 44.4619 81.8331 63.6128 80.334C66.7805 57.7296 86.1951 40.3354 109.673 40.3354C127.09 40.3354 142.271 49.9082 150.241 64.0804C155.018 62.4239 160.147 61.5241 165.488 61.5241C191.175 61.5241 212 82.3486 212 108.037C212 115.509 210.238 122.57 207.107 128.826C202.281 143.753 188.269 154.549 171.737 154.549Z" fill="white" fill-opacity="0.5"/>
</g>
</g>
<defs>
<filter id="filter0_f_14_4224" x="8" y="7" width="208" height="151.549" filterUnits="userSpaceOnUse" color-interpolation-filters="sRGB">
<feFlood flood-opacity="0" result="BackgroundImageFix"/>
<feBlend mode="normal" in="SourceGraphic" in2="BackgroundImageFix" result="shape"/>
<feGaussianBlur stdDeviation="2" result="effect1_foregroundBlur_14_4224"/>
</filter>
<filter id="filter1_f_14_4224" x="0.0505981" y="0.975983" width="104.161" height="88.3529" filterUnits="userSpaceOnUse" color-interpolation-filters="sRGB">
<feFlood flood-opacity="0" result="BackgroundImageFix"/>
<feBlend mode="normal" in="SourceGraphic" in2="BackgroundImageFix" result="shape"/>
<feGaussianBlur stdDeviation="10" result="effect1_foregroundBlur_14_4224"/>
</filter>
<filter id="filter2_d_14_4224" x="9.38947" y="12.3354" width="242.611" height="174.214" filterUnits="userSpaceOnUse" color-interpolation-filters="sRGB">
<feFlood flood-opacity="0" result="BackgroundImageFix"/>
<feColorMatrix in="SourceAlpha" type="matrix" values="0 0 0 0 0 0 0 0 0 0 0 0 0 0 0 0 0 0 127 0" result="hardAlpha"/>
<feOffset dx="10" dy="2"/>
<feGaussianBlur stdDeviation="15"/>
<feColorMatrix type="matrix" values="0 0 0 0 0.258824 0 0 0 0 0.627451 0 0 0 0 0.941176 0 0 0 0.596 0"/>
<feBlend mode="normal" in2="BackgroundImageFix" result="effect1_dropShadow_14_4224"/>
<feBlend mode="normal" in="SourceGraphic" in2="effect1_dropShadow_14_4224" result="shape"/>
</filter>
<linearGradient id="paint0_linear_14_4224" x1="120.708" y1="40.3367" x2="173.754" y2="168.589" gradientUnits="userSpaceOnUse">
<stop stop-color="white" stop-opacity="0.604"/>
<stop offset="1" stop-color="white" stop-opacity="0.2"/>
</linearGradient>
</defs>
</svg>
